<svg preserveAspectRatio="none" width="100%" height="100%" overflow="visible" style="display: block;" viewBox="0 0 103 21.2918" fill="none" xmlns="http://www.w3.org/2000/svg">
<g id="Group">
<path id="Vector" fill-rule="evenodd" clip-rule="evenodd" d="M46.7918 4.60496C50.1278 5.7808 51.88 9.43595 50.7042 12.772C49.8803 15.1121 47.8342 16.6728 45.5347 16.9899C44.7341 17.1002 43.9547 17.3013 43.1966 17.5798C42.893 17.692 42.5487 17.7016 42.218 17.5856C41.8873 17.4696 41.6262 17.2452 41.4599 16.9687C41.0441 16.2763 40.5606 15.6304 40.0075 15.0425C38.4139 13.3541 37.799 10.8555 38.6228 8.51539C39.7986 5.17934 43.4538 3.42719 46.7899 4.60302L46.7918 4.60496Z" fill="var(--fill-0, #FFFC23)"/>
<path id="Vector_2" d="M18.6994 10.6426C18.6994 8.86145 18.1269 7.37618 16.9859 6.18681C15.8429 4.99743 14.4118 4.40178 12.6945 4.40178C10.8514 4.40178 9.34293 4.99743 8.16903 6.18681C6.99512 7.37618 6.4072 8.86145 6.4072 10.6426C6.4072 11.6347 6.58899 12.5321 6.95258 13.3366C7.24653 13.9903 7.6604 14.5821 8.19223 15.11C8.86138 15.7753 9.65623 16.253 10.5768 16.545C11.2923 16.7713 12.0853 16.8835 12.9555 16.8835C15.2241 16.8835 16.9414 16.0712 18.1076 14.4486L15.2724 12.8164C14.7193 13.4159 13.9631 13.7157 13.002 13.7157C11.5206 13.7157 10.5749 13.1645 10.1668 12.0602H18.5582C18.6529 11.6193 18.6994 11.1474 18.6994 10.6426ZM10.0952 9.41263C10.4414 8.1691 11.3001 7.54637 12.6712 7.54637C14.0424 7.54637 14.8295 8.1691 15.1776 9.41263H10.0952Z" fill="var(--fill-0, #FFFC23)"/>
<path id="Vector_3" d="M32.788 4.40178C34.1437 4.40178 35.2305 4.84658 36.0505 5.73813C36.8705 6.62775 37.2805 7.81519 37.2805 9.29466V16.5508H33.7356V9.60215C33.7356 9.00263 33.5905 8.53075 33.2985 8.18457C33.0065 7.8384 32.5849 7.66434 32.0337 7.66434C31.4497 7.66434 30.9971 7.8616 30.6742 8.25613C30.3512 8.65065 30.1887 9.19409 30.1887 9.88644V16.5527H26.6438V9.60409C26.6438 9.00456 26.4988 8.53268 26.2067 8.18651C25.9147 7.84033 25.4931 7.66627 24.942 7.66627C24.3579 7.66627 23.9054 7.86354 23.5824 8.25806C23.2594 8.65259 23.097 9.19602 23.097 9.88838V16.5547H19.552V4.73248H23.097V5.81936C23.7429 4.87366 24.7988 4.40178 26.2648 4.40178C27.6359 4.40178 28.6687 4.92201 29.361 5.96247C30.0862 4.92201 31.2292 4.40178 32.788 4.40178Z" fill="var(--fill-0, #FFFC23)"/>
<path id="Vector_4" d="M58.7471 4.40169C60.008 4.40169 61.0601 4.83489 61.9033 5.7013C62.7465 6.56771 63.1681 7.76675 63.1681 9.29457V16.5507H59.6232V9.8148C59.6232 9.12245 59.4298 8.59061 59.0449 8.2193C58.6581 7.84991 58.1669 7.66425 57.5674 7.66425C56.8905 7.66425 56.3529 7.86925 55.9603 8.27925C55.5657 8.68924 55.3685 9.29457 55.3685 10.0991V16.5527H51.8236V4.73239H55.3685V5.84248C56.0782 4.88131 57.2038 4.39976 58.749 4.39976L58.7471 4.40169Z" fill="var(--fill-0, #FFFC23)"/>
<path id="Vector_5" d="M73.2173 0.00588819H76.7622V16.5527H73.2173V15.4426C72.3818 16.4038 71.2079 16.8854 69.6955 16.8854C68.1832 16.8854 66.8043 16.282 65.7 15.0771C64.5977 13.8723 64.0446 12.3947 64.0446 10.6445C64.0446 8.8943 64.5957 7.4187 65.7 6.21192C66.8024 5.00707 68.1349 4.40368 69.6955 4.40368C71.2562 4.40368 72.3818 4.88523 73.2173 5.8464V0.00588819ZM68.3727 12.7467C68.893 13.2669 69.5698 13.5261 70.4053 13.5261C71.2408 13.5261 71.9176 13.2669 72.4379 12.7467C72.9581 12.2265 73.2173 11.5264 73.2173 10.6426C73.2173 9.75877 72.9581 9.05868 72.4379 8.53845C71.9176 8.01822 71.2408 7.75907 70.4053 7.75907C69.5698 7.75907 68.893 8.01822 68.3727 8.53845C67.8525 9.05868 67.5934 9.7607 67.5934 10.6426C67.5934 11.5245 67.8525 12.2265 68.3727 12.7467Z" fill="var(--fill-0, #FFFC23)"/>
<path id="Vector_6" d="M86.7859 4.73248H90.3308V16.5508H86.7859V15.4407C85.9504 16.4019 84.7765 16.8835 83.2641 16.8835C81.7518 16.8835 80.3729 16.2801 79.2686 15.0752C78.1663 13.8704 77.6132 12.3928 77.6132 10.6426C77.6132 8.89239 78.1643 7.4168 79.2686 6.21001C80.371 5.00517 81.7035 4.40178 83.2641 4.40178C84.8248 4.40178 85.9504 4.88333 86.7859 5.8445V4.73441V4.73248ZM81.9394 12.7467C82.4596 13.267 83.1365 13.5261 83.972 13.5261C84.8074 13.5261 85.4843 13.267 86.0045 12.7467C86.5248 12.2265 86.7839 11.5264 86.7839 10.6426C86.7839 9.7588 86.5248 9.05871 86.0045 8.53848C85.4843 8.01825 84.8074 7.7591 83.972 7.7591C83.1365 7.7591 82.4596 8.01825 81.9394 8.53848C81.4192 9.05871 81.16 9.76074 81.16 10.6426C81.16 11.5245 81.4192 12.2265 81.9394 12.7467Z" fill="var(--fill-0, #FFFC23)"/>
<path id="Vector_7" fill-rule="evenodd" clip-rule="evenodd" d="M46.9563 1.468C46.4844 2.08686 46.1692 2.81016 46.0396 3.57793C45.8404 3.19888 45.7282 2.76568 45.7282 2.30926C45.7282 1.61885 45.9854 0.986446 46.407 0.50296C46.6507 0.781448 46.8383 1.11022 46.9543 1.468H46.9563Z" fill="var(--fill-0, #FFFC23)"/>
<path id="Vector_8" fill-rule="evenodd" clip-rule="evenodd" d="M50.5223 3.07742e-05C50.4585 1.03469 50.033 2.04808 49.242 2.83519C48.453 3.62424 47.4396 4.05164 46.4069 4.1174C46.4514 3.39604 46.6738 2.68435 47.0741 2.05195C47.2462 1.77733 47.4512 1.51818 47.6891 1.28224C48.4762 0.493187 49.4915 0.0657849 50.5223 3.07742e-05Z" fill="var(--fill-0, #FFFC23)"/>
<path id="Vector_9" d="M99.2189 4.73242L96.9968 11.9654L94.3725 4.73242H90.4717L94.796 15.0984C95.1364 15.9164 94.9352 16.8873 94.241 17.4384C94.1984 17.4713 94.1559 17.5042 94.1114 17.5332C93.6705 17.8252 93.04 17.9703 92.22 17.9703H90.3286V21.2908H92.22V21.2812C93.8909 21.3605 95.266 20.9969 96.3451 20.1943C97.4242 19.3898 98.2945 18.0592 98.9579 16.1988L103 4.73435H99.217L99.2189 4.73242Z" fill="var(--fill-0, #FFFC23)"/>
<path id="Vector_10" d="M7.18074 15.9339C7.54625 16.2974 7.94271 16.6146 8.37205 16.8834H5.8966C2.6263 16.8834 0 15.0597 0 11.5747V0.00588819H3.54492V11.948C3.54492 12.8879 4.41133 13.2611 5.50207 13.325C5.85405 14.3016 6.41489 15.1738 7.18074 15.9339Z" fill="var(--fill-0, #FFFC23)"/>
</g>
</svg>
