<svg preserveAspectRatio="none" width="100%" height="100%" overflow="visible" style="display: block;" viewBox="0 0 12.5021 12.3183" fill="none" xmlns="http://www.w3.org/2000/svg">
<g id="FIFA">
<path id="Vector" d="M3.82384 9.85016C4.15578 9.8474 4.48082 9.8747 4.80482 9.94883C5.37921 10.0802 6.06574 10.4308 6.60246 10.6876C6.98348 10.8699 7.70509 11.1418 8.1307 11.0532C8.74414 10.9253 9.26047 10.5517 9.57911 10.0249C9.74085 9.75754 9.73774 9.4313 9.56788 9.17694C9.48787 9.05719 9.39836 8.95679 9.27394 8.87989L7.21849 7.60826C6.69871 7.28668 6.073 7.18473 5.53767 7.51909C4.82193 7.96613 4.23493 8.31864 3.42139 8.56488C3.07164 8.67063 2.72828 8.73094 2.36782 8.72938C1.90852 8.72748 1.51281 8.56229 1.18086 8.24779C0.771499 7.8602 0.51852 7.34871 0.426936 6.78832C0.331896 6.20599 0.381144 5.72716 0.491391 5.15467C0.566904 4.76242 0.730373 4.41872 1.00063 4.12375C1.54875 3.52569 1.95051 3.52465 2.47842 3.01005C2.82039 2.67672 3.36419 1.99503 3.34242 1.50894C3.3374 1.39628 3.28712 1.27843 3.18983 1.23056C2.91318 1.09422 2.48256 1.41183 2.27209 1.5594C1.48568 2.1108 0.860491 2.84693 0.470482 3.72873C0.0768438 4.6183 -0.0703817 5.4671 0.0310518 6.4429C0.129029 7.38621 0.397906 8.29807 0.850123 9.13114C1.05057 9.50042 1.27538 9.85621 1.57796 10.1503C1.19192 9.5412 0.882955 8.93536 0.727262 8.23535C0.8814 8.42508 1.01376 8.60082 1.18587 8.76256C1.60699 9.15862 2.1285 9.39069 2.71083 9.44771C2.68975 9.47156 2.65951 9.49437 2.631 9.50716C2.20954 9.69672 1.79188 10.0644 2.02119 10.5687C2.13333 10.8154 2.3286 11.0271 2.60041 11.1304C2.47099 10.944 2.401 10.7549 2.48844 10.5543C2.72137 10.0197 3.27934 9.85448 3.82384 9.84982V9.85016Z" fill="var(--fill-0, #878788)"/>
<path id="Vector_2" d="M2.07742 4.40654C1.91032 4.50521 1.76673 4.61771 1.6252 4.75042C1.36238 4.997 1.19718 5.31979 1.16417 5.68647C1.12218 6.15148 1.21619 6.63272 1.43495 7.04088C1.63056 7.40583 1.99914 7.57811 2.40177 7.54977C2.73216 7.52645 3.02609 7.41343 3.3126 7.24824L5.07308 6.23321C5.52478 5.9728 5.81387 5.49346 5.79573 4.98577L5.76756 4.19452V3.17517C5.76791 2.81506 5.82459 2.46877 5.91133 2.12403C6.0316 1.64641 6.42057 1.10417 6.85344 0.874516C7.15428 0.714849 7.48537 0.660935 7.82734 0.668711C8.14339 0.675969 8.44907 0.709146 8.75009 0.818183C9.2811 1.01051 9.7703 1.31084 10.1594 1.72296C10.4221 2.001 10.6058 2.33156 10.762 2.67647C10.9039 2.98976 10.9633 3.31255 10.9967 3.65245C11.0449 4.14527 11.1302 4.62047 11.3105 5.08115C11.429 5.38407 11.7471 6.03778 12.1641 5.86774C12.2422 5.83595 12.2965 5.73987 12.3194 5.66055C12.4131 5.33828 12.3659 4.88002 12.2714 4.55688C12.1176 4.03157 11.9203 3.53235 11.6713 3.04367C11.354 2.42125 10.9256 1.87261 10.391 1.42264C9.30547 0.509908 7.97249 0.0741069 6.56693 0.00775174C6.39742 -0.000197057 6.24449 -0.00382585 6.07964 0.00567814C5.85241 0.0188109 5.63433 0.0222669 5.40572 0.0760077L5.79867 0.0913869L6.26315 0.109358C6.80073 0.130094 7.32656 0.209755 7.8536 0.378753C7.54619 0.3829 7.54913 0.346785 7.20405 0.371323C6.54292 0.418324 5.94866 0.721761 5.50283 1.22219C5.4484 1.03487 5.40831 0.882637 5.3245 0.735758C5.17624 0.476039 4.92378 0.314644 4.62207 0.297364C4.40037 0.28475 4.17279 0.314299 3.96664 0.421262C4.25677 0.418497 4.49437 0.534273 4.6314 0.776193C4.83617 1.13804 4.78727 1.72003 4.6416 2.11297C4.48953 2.52303 4.24641 2.88176 3.94591 3.19729C3.75617 3.39636 3.54933 3.53736 3.3145 3.67612L2.07759 4.40672L2.07742 4.40654Z" fill="var(--fill-0, #878788)"/>
<path id="Vector_3" d="M12.239 7.70827C12.4139 7.47101 12.5259 7.08843 12.4977 6.79675L12.4025 7.02985C12.3017 7.27661 12.0719 7.39792 11.8105 7.32914C11.459 7.2367 11.1592 7.0397 10.9112 6.77843C10.3662 6.2037 10.1485 5.32328 10.1174 4.55052C10.1051 4.24622 10.1046 3.95298 10.1184 3.64885C10.1556 2.8398 9.83157 2.04596 9.04326 1.72075C8.80359 1.62191 8.55545 1.56713 8.29452 1.5521C7.93216 1.53119 7.59779 1.63885 7.40201 1.95455C7.28364 2.14532 7.24821 2.357 7.24545 2.58112L7.23042 3.80524C7.22402 4.32848 7.20363 4.84238 7.23405 5.36026C7.26221 5.84134 7.54837 6.23895 7.94909 6.47309L9.85801 7.58852C9.98485 7.66265 10.0937 7.74265 10.2116 7.82629C10.3622 7.93325 10.467 8.09067 10.5368 8.26088C10.6852 8.62272 10.6902 8.9875 10.6702 9.37561C10.6394 9.97143 10.3797 10.5164 9.93525 10.9179C8.89379 11.8584 7.41704 12.0018 6.14955 11.42C5.77959 11.2501 5.42639 11.0862 5.04242 10.9536C4.61734 10.8069 4.02204 10.6554 3.64776 10.9709C3.57535 11.0319 3.50312 11.1256 3.51297 11.2251C3.54961 11.5932 4.24651 11.8947 4.56049 11.9897C5.97312 12.4176 7.50983 12.4611 8.89966 11.9189C9.50429 11.683 10.045 11.3405 10.5076 10.8829C11.0782 10.3186 11.9233 9.12021 12.2033 8.33657C11.871 8.81211 11.5889 9.30148 11.1374 9.68942C11.3244 9.00807 11.2902 8.35713 11.0251 7.73471L11.0396 7.71725C11.426 7.99511 11.9071 8.15789 12.2387 7.70809L12.239 7.70827Z" fill="var(--fill-0, #878788)"/>
</g>
</svg>
