<svg preserveAspectRatio="none" width="100%" height="100%" overflow="visible" style="display: block;" viewBox="0 0 84.8352 27.9997" fill="none" xmlns="http://www.w3.org/2000/svg">
<g id="googleplay" filter="url(#filter0_d_0_15)">
<path id="path14" d="M78.9668 0H5.86833C4.2609 0 2.94439 1.24443 2.94439 2.76386V19.347C2.94439 20.8665 4.2609 22.1109 5.86833 22.1109H78.9668C80.5743 22.1109 81.8908 20.8665 81.8908 19.347V2.76386C81.8908 1.24443 80.5743 0 78.9668 0Z" fill="var(--fill-0, black)"/>
<path id="path16" opacity="0.5" d="M78.9668 21.668C80.3206 21.668 81.4222 20.6267 81.4222 19.347V2.76386C81.4222 1.48419 80.3206 0.442909 78.9668 0.442909H5.86833C4.51455 0.442909 3.41296 1.48419 3.41296 2.76386V19.347C3.41296 20.6267 4.51455 21.668 5.86833 21.668H78.9668ZM78.9668 22.1109H5.86833C4.2609 22.1109 2.94439 20.8665 2.94439 19.347V2.76386C2.94439 1.24443 4.2609 0 5.86833 0H78.9668C80.5743 0 81.8908 1.24443 81.8908 2.76386V19.347C81.8908 20.8665 80.5743 22.1109 78.9668 22.1109Z" fill="var(--fill-0, #A6A6A6)"/>
<g id="g18">
<path id="path20" d="M30.671 16.4591C30.671 15.9976 30.5248 15.6279 30.2368 15.3523C29.9056 15.0255 29.4743 14.861 28.9458 14.861C28.4407 14.861 28.0094 15.0282 27.6556 15.3578C27.3011 15.6922 27.1242 16.1026 27.1242 16.5938C27.1242 17.0851 27.3011 17.4955 27.6556 17.8271C28.0094 18.1594 28.4407 18.3266 28.9458 18.3266C29.1973 18.3266 29.4371 18.2776 29.6659 18.1864C29.8939 18.0945 30.0796 17.9701 30.2141 17.8167L29.9086 17.5252C29.6739 17.787 29.3545 17.9162 28.9458 17.9162C28.5774 17.9162 28.258 17.7946 27.9868 17.5493C27.7185 17.3034 27.584 16.9849 27.584 16.5938C27.584 16.2028 27.7185 15.8815 27.9868 15.6355C28.258 15.393 28.5774 15.2687 28.9458 15.2687C29.3369 15.2687 29.6659 15.393 29.9254 15.6383C30.0964 15.8007 30.1937 16.0245 30.2192 16.3105H28.9458V16.7099H30.6447C30.6651 16.6235 30.671 16.5399 30.671 16.4591V16.4591Z" fill="var(--fill-0, white)"/>
</g>
<g id="g22">
<path id="path24" d="M33.3651 17.8432H31.7693V16.7931H33.208V16.3937H31.7693V15.3435H33.3651V14.9366H31.3176V18.2502H33.3651V17.8432Z" fill="var(--fill-0, white)"/>
</g>
<g id="g26">
<path id="path28" d="M35.2671 14.9366H34.8154V17.8432H33.8366V18.2502H36.2467V17.8432H35.2671V14.9366V14.9366Z" fill="var(--fill-0, white)"/>
</g>
<g id="g30">
<path id="path32" d="M37.9909 14.9366V18.2502H38.4419V14.9366H37.9909Z" fill="var(--fill-0, white)"/>
</g>
<g id="g34">
<path id="path36" d="M40.4409 14.9366H39.9928V17.8432H39.0104V18.2502H41.4234V17.8432H40.4409V14.9366Z" fill="var(--fill-0, white)"/>
</g>
<g id="g38">
<path id="path40" d="M45.985 15.3633C45.6392 15.0282 45.2109 14.861 44.6999 14.861C44.186 14.861 43.7577 15.0282 43.4119 15.3633C43.0669 15.6977 42.8951 16.1081 42.8951 16.5938C42.8951 17.0795 43.0669 17.4899 43.4119 17.8243C43.7577 18.1594 44.186 18.3266 44.6999 18.3266C45.208 18.3266 45.6363 18.1594 45.9821 17.8216C46.33 17.4844 46.5018 17.0768 46.5018 16.5938C46.5018 16.1081 46.33 15.6977 45.985 15.3633ZM43.746 15.6411C44.0062 15.393 44.3227 15.2687 44.6999 15.2687C45.0742 15.2687 45.3936 15.393 45.6509 15.6411C45.9104 15.8891 46.042 16.2076 46.042 16.5938C46.042 16.98 45.9104 17.2985 45.6509 17.5466C45.3936 17.7946 45.0742 17.919 44.6999 17.919C44.3227 17.919 44.0062 17.7946 43.746 17.5466C43.4865 17.2985 43.3549 16.98 43.3549 16.5938C43.3549 16.2076 43.4865 15.8891 43.746 15.6411V15.6411Z" fill="var(--fill-0, white)"/>
</g>
<g id="g42">
<path id="path44" d="M47.1355 14.9366V18.2502H47.6838L49.3884 15.6731H49.4082L49.3884 16.3101V18.2502H49.8395V14.9366H49.3687L47.5836 17.6408H47.5639L47.5836 17.001V14.9366H47.1355V14.9366Z" fill="var(--fill-0, white)"/>
</g>
<path id="path46" d="M42.7892 10.0868C41.4157 10.0868 40.2936 9.09872 40.2936 7.73545C40.2936 6.38323 41.4157 5.38479 42.7892 5.38479C44.1656 5.38479 45.2877 6.38323 45.2877 7.73545C45.2877 9.09872 44.1656 10.0868 42.7892 10.0868ZM42.7892 6.31068C42.0355 6.31068 41.3872 6.89869 41.3872 7.73545C41.3872 8.58326 42.0355 9.16091 42.7892 9.16091C43.5428 9.16091 44.1941 8.58326 44.1941 7.73545C44.1941 6.89869 43.5428 6.31068 42.7892 6.31068V6.31068ZM37.3441 10.0868C35.9676 10.0868 34.8485 9.09872 34.8485 7.73545C34.8485 6.38323 35.9676 5.38479 37.3441 5.38479C38.7198 5.38479 39.8397 6.38323 39.8397 7.73545C39.8397 9.09872 38.7198 10.0868 37.3441 10.0868ZM37.3441 6.31068C36.5897 6.31068 35.9391 6.89869 35.9391 7.73545C35.9391 8.58326 36.5897 9.16091 37.3441 9.16091C38.0977 9.16091 38.7461 8.58326 38.7461 7.73545C38.7461 6.89869 38.0977 6.31068 37.3441 6.31068ZM30.8646 9.36613V8.36699H33.3887C33.3149 7.80869 33.1175 7.39826 32.8149 7.1122C32.4465 6.76672 31.8727 6.38323 30.8646 6.38323C29.3113 6.38323 28.0949 7.56824 28.0949 9.03654C28.0949 10.5048 29.3113 11.6898 30.8646 11.6898C31.7045 11.6898 32.3156 11.3796 32.7666 10.9775L33.5115 11.6816C32.8807 12.2509 32.0415 12.6883 30.8646 12.6883C28.7345 12.6883 26.9444 11.05 26.9444 9.03654C26.9444 7.02306 28.7345 5.38479 30.8646 5.38479C32.0159 5.38479 32.8807 5.74132 33.5605 6.41018C34.2571 7.06867 34.4742 7.99456 34.4742 8.74219C34.4742 8.97435 34.4538 9.18786 34.4172 9.36613H30.8646ZM57.3599 8.59156C57.1545 9.11738 56.5207 10.0868 55.2298 10.0868C53.9506 10.0868 52.8855 9.13396 52.8855 7.73545C52.8855 6.41847 53.9396 5.38479 55.3526 5.38479C56.4952 5.38479 57.1545 6.04328 57.4257 6.42676L56.5778 6.96088C56.2949 6.56979 55.9096 6.31068 55.3526 6.31068C54.7993 6.31068 54.4023 6.55044 54.148 7.02306L57.4747 8.32415L57.3599 8.59156V8.59156ZM53.9681 7.80869C53.9396 8.71524 54.713 9.17957 55.2671 9.17957C55.7013 9.17957 56.0697 8.97435 56.1925 8.68069L53.9681 7.80869V7.80869ZM51.2642 5.52781H52.3578V12.4375H51.2642V5.52781ZM49.4733 9.56305H49.4368C49.1911 9.83806 48.7226 10.0868 48.129 10.0868C46.8834 10.0868 45.7446 9.05312 45.7446 7.72785C45.7446 6.41018 46.8834 5.38479 48.129 5.38479C48.7226 5.38479 49.1911 5.63561 49.4368 5.9189H49.4733V5.58171C49.4733 4.68276 48.9653 4.19978 48.1458 4.19978C47.4777 4.19978 47.0633 4.65582 46.8922 5.0393L45.9412 4.66411C46.2153 4.04086 46.9412 3.27389 48.1458 3.27389C49.428 3.27389 50.5098 3.98696 50.5098 5.72198V9.94378H49.4733V9.56305V9.56305ZM48.2226 6.31068C47.469 6.31068 46.8381 6.90698 46.8381 7.72785C46.8381 8.55632 47.469 9.16091 48.2226 9.16091C48.9653 9.16091 49.5508 8.55632 49.5508 7.72785C49.5508 6.90698 48.9653 6.31068 48.2226 6.31068V6.31068ZM62.4797 12.4375H59.8643V5.52781H60.9549V8.14588H62.4797C63.691 8.14588 64.8788 8.97435 64.8788 10.292C64.8788 11.609 63.688 12.4375 62.4797 12.4375V12.4375ZM62.5082 9.10702H60.9549V11.4763H62.5082C63.3226 11.4763 63.7875 10.8372 63.7875 10.292C63.7875 9.75722 63.3226 9.10702 62.5082 9.10702ZM69.2501 10.0999C68.4621 10.0999 67.6427 9.77103 67.3057 9.04207L68.2735 8.65858C68.4818 9.04207 68.8649 9.16644 69.2698 9.16644C69.8356 9.16644 70.4095 8.84514 70.4182 8.27786V8.20531C70.2209 8.3131 69.7984 8.47271 69.2786 8.47271C68.2362 8.47271 67.1741 7.9303 67.1741 6.91804C67.1741 5.99214 68.0279 5.39584 68.9877 5.39584C69.7216 5.39584 70.1266 5.70885 70.3809 6.07299H70.4182V5.53887H71.4716V8.18941C71.4716 9.4145 70.5038 10.0999 69.2501 10.0999ZM69.1185 6.31344C68.7618 6.31344 68.2647 6.48066 68.2647 6.89869C68.2647 7.4335 68.8846 7.63871 69.4212 7.63871C69.9014 7.63871 70.1266 7.53852 70.4182 7.40655C70.3327 6.76672 69.7501 6.31344 69.1185 6.31344V6.31344ZM75.3092 9.94861L74.0556 6.95328H74.0183L72.7223 9.94861H71.5461L73.4935 5.76274L72.3824 3.4335H73.522L76.5227 9.94861H75.3092V9.94861ZM65.4782 5.52781H66.5718V12.4375H65.4782V5.52781Z" fill="var(--fill-0, white)"/>
<g id="g48">
<path id="path64" d="M9.04629 17.9438C8.8745 17.7738 8.77509 17.5092 8.77509 17.1665V4.9419C8.77509 4.59918 8.8745 4.33454 9.04629 4.16456L9.08868 4.12725L16.3357 10.9747V11.1364L9.08868 17.9839L9.04629 17.9438Z" fill="url(#paint0_linear_0_15)"/>
</g>
<g id="g66">
<path id="path78" d="M18.749 8.69103L16.336 10.9745V11.1362L18.7519 13.4196L18.806 13.3899L21.6671 11.8512C22.4837 11.4146 22.4837 10.696 21.6671 10.2566L18.806 8.72074L18.749 8.69103V8.69103Z" fill="url(#paint1_linear_0_15)"/>
</g>
<g id="g80">
<path id="path88" d="M18.8064 8.72033L16.3363 11.0549L9.04684 4.16449C9.31804 3.89504 9.76029 3.86256 10.2632 4.13202L18.8064 8.72033" fill="url(#paint2_linear_0_15)"/>
</g>
<g id="g90">
<path id="path104" d="M18.8052 13.3968L10.262 17.9851C9.75907 18.2518 9.31681 18.2194 9.04561 17.9499L16.3351 11.0622L18.8052 13.3968Z" fill="url(#paint3_linear_0_15)"/>
</g>
</g>
<defs>
<filter id="filter0_d_0_15" x="0" y="0" width="84.8352" height="27.9997" filterUnits="userSpaceOnUse" color-interpolation-filters="sRGB">
<feFlood flood-opacity="0" result="BackgroundImageFix"/>
<feColorMatrix in="SourceAlpha" type="matrix" values="0 0 0 0 0 0 0 0 0 0 0 0 0 0 0 0 0 0 127 0" result="hardAlpha"/>
<feOffset dy="2.94439"/>
<feGaussianBlur stdDeviation="1.4722"/>
<feComposite in2="hardAlpha" operator="out"/>
<feColorMatrix type="matrix" values="0 0 0 0 0 0 0 0 0 0 0 0 0 0 0 0 0 0 0.25 0"/>
<feBlend mode="normal" in2="BackgroundImageFix" result="effect1_dropShadow_0_15"/>
<feBlend mode="normal" in="SourceGraphic" in2="effect1_dropShadow_0_15" result="shape"/>
</filter>
<linearGradient id="paint0_linear_0_15" x1="15.6922" y1="4.81459" x2="6.43005" y2="14.6132" gradientUnits="userSpaceOnUse">
<stop stop-color="#00A0FF"/>
<stop offset="0.0066" stop-color="#00A1FF"/>
<stop offset="0.2601" stop-color="#00BEFF"/>
<stop offset="0.5122" stop-color="#00D2FF"/>
<stop offset="0.7604" stop-color="#00DFFF"/>
<stop offset="1" stop-color="#00E3FF"/>
</linearGradient>
<linearGradient id="paint1_linear_0_15" x1="22.7304" y1="11.0561" x2="8.58009" y2="11.0561" gradientUnits="userSpaceOnUse">
<stop stop-color="#FFE000"/>
<stop offset="0.4087" stop-color="#FFBD00"/>
<stop offset="0.7754" stop-color="#FFA500"/>
<stop offset="1" stop-color="#FF9C00"/>
</linearGradient>
<linearGradient id="paint2_linear_0_15" x1="17.4632" y1="12.324" x2="4.90414" y2="25.6119" gradientUnits="userSpaceOnUse">
<stop stop-color="#FF3A44"/>
<stop offset="1" stop-color="#C31162"/>
</linearGradient>
<linearGradient id="paint3_linear_0_15" x1="7.21069" y1="0.10512" x2="12.8189" y2="6.0387" gradientUnits="userSpaceOnUse">
<stop stop-color="#32A071"/>
<stop offset="0.0685" stop-color="#2DA771"/>
<stop offset="0.4762" stop-color="#15CF74"/>
<stop offset="0.8009" stop-color="#06E775"/>
<stop offset="1" stop-color="#00F076"/>
</linearGradient>
</defs>
</svg>
