<svg preserveAspectRatio="none" width="100%" height="100%" overflow="visible" style="display: block;" viewBox="0 0 79.2255 22.0207" fill="none" xmlns="http://www.w3.org/2000/svg">
<path id="path16" opacity="0.5" d="M76.2912 21.5796C77.6498 21.5796 78.7553 20.5426 78.7553 19.2681V2.75259C78.7553 1.47814 77.6498 0.441102 76.2912 0.441102H2.93428C1.57571 0.441102 0.470218 1.47814 0.470218 2.75259V19.2681C0.470218 20.5426 1.57571 21.5796 2.93428 21.5796H76.2912ZM76.2912 22.0207H2.93428C1.32116 22.0207 0 20.7813 0 19.2681V2.75259C0 1.23935 1.32116 0 2.93428 0H76.2912C77.9044 0 79.2255 1.23935 79.2255 2.75259V19.2681C79.2255 20.7813 77.9044 22.0207 76.2912 22.0207Z" fill="var(--fill-0, #A6A6A6)"/>
</svg>
