<svg width="800" height="600" viewBox="0 0 800 600" fill="none" xmlns="http://www.w3.org/2000/svg">
  <rect width="800" height="600" rx="42" fill="#F9FAFB"/>
  <rect x="36" y="34" width="728" height="532" rx="34" fill="url(#bg1)"/>
  <circle cx="250" cy="178" r="120" fill="#111827" fill-opacity="0.08"/>
  <circle cx="560" cy="340" r="142" fill="#D1D5DB" fill-opacity="0.72"/>
  <rect x="88" y="94" width="210" height="18" rx="9" fill="#111827" fill-opacity="0.14"/>
  <rect x="88" y="130" width="286" height="14" rx="7" fill="#111827" fill-opacity="0.10"/>
  <rect x="88" y="158" width="244" height="14" rx="7" fill="#111827" fill-opacity="0.08"/>
  <rect x="88" y="220" width="620" height="272" rx="28" fill="#FFFFFF" fill-opacity="0.86" stroke="#E5E7EB"/>
  <circle cx="220" cy="360" r="76" fill="#111827" fill-opacity="0.14"/>
  <rect x="350" y="304" width="252" height="16" rx="8" fill="#111827" fill-opacity="0.14"/>
  <rect x="350" y="340" width="204" height="12" rx="6" fill="#6B7280" fill-opacity="0.28"/>
  <rect x="350" y="366" width="228" height="12" rx="6" fill="#6B7280" fill-opacity="0.20"/>
  <rect x="350" y="414" width="182" height="38" rx="19" fill="#111827"/>
  <defs>
    <linearGradient id="bg1" x1="36" y1="34" x2="764" y2="566" gradientUnits="userSpaceOnUse">
      <stop stop-color="#F3F4F6"/>
      <stop offset="1" stop-color="#E5E7EB"/>
    </linearGradient>
  </defs>
</svg>
