<svg width="800" height="600" viewBox="0 0 800 600" fill="none" xmlns="http://www.w3.org/2000/svg">
  <rect width="800" height="600" rx="42" fill="#F9FAFB"/>
  <rect x="40" y="42" width="720" height="516" rx="30" fill="url(#bg2)"/>
  <rect x="92" y="82" width="260" height="22" rx="11" fill="#111827" fill-opacity="0.14"/>
  <rect x="92" y="122" width="188" height="12" rx="6" fill="#111827" fill-opacity="0.10"/>
  <rect x="92" y="144" width="220" height="12" rx="6" fill="#111827" fill-opacity="0.08"/>
  <rect x="92" y="196" width="616" height="252" rx="28" fill="#FFFFFF" fill-opacity="0.84" stroke="#E5E7EB"/>
  <rect x="126" y="236" width="168" height="168" rx="30" fill="#111827" fill-opacity="0.08"/>
  <circle cx="210" cy="320" r="58" fill="#111827" fill-opacity="0.16"/>
  <rect x="334" y="250" width="248" height="16" rx="8" fill="#111827" fill-opacity="0.14"/>
  <rect x="334" y="286" width="204" height="12" rx="6" fill="#6B7280" fill-opacity="0.28"/>
  <rect x="334" y="310" width="236" height="12" rx="6" fill="#6B7280" fill-opacity="0.20"/>
  <rect x="334" y="356" width="144" height="40" rx="20" fill="#111827"/>
  <rect x="92" y="494" width="168" height="18" rx="9" fill="#111827" fill-opacity="0.10"/>
  <defs>
    <linearGradient id="bg2" x1="40" y1="42" x2="760" y2="558" gradientUnits="userSpaceOnUse">
      <stop stop-color="#F3F4F6"/>
      <stop offset="1" stop-color="#E5E7EB"/>
    </linearGradient>
  </defs>
</svg>
